<svg width="2641" height="1470" viewBox="0 0 2641 1470" fill="none" xmlns="http://www.w3.org/2000/svg">
<path d="M1162.42 1080.13V994.646H1172.94V1080.13H1162.42Z" fill="white"/>
<path d="M1191.57 1080.13V1016.41H1201.48L1201.96 1026.08C1203.41 1023.75 1205.27 1021.81 1207.53 1020.28C1209.78 1018.75 1212.24 1017.62 1214.94 1016.85C1217.64 1016.09 1220.26 1015.69 1222.84 1015.69C1229.05 1015.69 1233.93 1016.98 1237.43 1019.55C1240.94 1022.13 1243.44 1025.6 1244.93 1029.99C1246.42 1034.39 1247.19 1039.38 1247.19 1044.95V1080.13H1236.91V1047.73C1236.91 1044.75 1236.75 1041.88 1236.38 1039.14C1236.02 1036.4 1235.3 1033.94 1234.21 1031.77C1233.12 1029.59 1231.55 1027.9 1229.57 1026.61C1227.56 1025.36 1224.86 1024.75 1221.47 1024.75C1217.28 1024.75 1213.69 1025.92 1210.79 1028.26C1207.85 1030.6 1205.63 1033.74 1204.14 1037.69C1202.65 1041.64 1201.88 1046.08 1201.88 1050.99V1080.13H1191.61H1191.57Z" fill="white"/>
<path d="M1269.19 1080.13V1025.48H1258.79V1016.41H1269.19V1009.64C1269.19 1004.88 1269.88 1001.01 1271.21 997.991C1272.54 994.969 1274.67 992.711 1277.61 991.26C1280.56 989.809 1284.42 989.084 1289.3 989.084H1296.56V998.152H1290.39C1287.49 998.152 1285.27 998.636 1283.66 999.603C1282.05 1000.57 1281 1002.02 1280.39 1003.92C1279.79 1005.81 1279.47 1008.11 1279.47 1010.85V1016.41H1296.52V1025.48H1279.47V1080.13H1269.19Z" fill="white"/>
<path d="M1312.32 1006.98C1310.22 1006.98 1308.53 1006.34 1307.28 1005.05C1306.03 1003.76 1305.43 1002.1 1305.43 1000.09C1305.43 998.072 1306.07 996.46 1307.36 995.211C1308.65 993.962 1310.3 993.357 1312.32 993.357C1314.17 993.357 1315.78 994.002 1317.19 995.291C1318.61 996.581 1319.29 998.193 1319.29 1000.13C1319.29 1002.06 1318.61 1003.8 1317.23 1005.09C1315.86 1006.38 1314.21 1007.02 1312.28 1007.02L1312.32 1006.98ZM1307.24 1080.13V1016.41H1317.52V1080.13H1307.24Z" fill="white"/>
<path d="M1333.72 1080.13V1016.41H1343.63L1344.12 1026.08C1345.57 1023.75 1347.42 1021.81 1349.68 1020.28C1351.94 1018.75 1354.4 1017.62 1357.1 1016.85C1359.8 1016.09 1362.42 1015.69 1365 1015.69C1371.2 1015.69 1376.08 1016.98 1379.59 1019.55C1383.09 1022.13 1385.59 1025.6 1387.08 1029.99C1388.57 1034.39 1389.34 1039.38 1389.34 1044.95V1080.13H1379.06V1047.73C1379.06 1044.75 1378.9 1041.88 1378.54 1039.14C1378.18 1036.4 1377.45 1033.94 1376.36 1031.77C1375.27 1029.59 1373.7 1027.9 1371.73 1026.61C1369.71 1025.36 1367.01 1024.75 1363.63 1024.75C1359.43 1024.75 1355.85 1025.92 1352.94 1028.26C1350 1030.6 1347.79 1033.74 1346.29 1037.69C1344.8 1041.64 1344.04 1046.08 1344.04 1050.99V1080.13H1333.76H1333.72Z" fill="white"/>
<path d="M1410.25 1006.98C1408.16 1006.98 1406.47 1006.34 1405.22 1005.05C1403.97 1003.76 1403.36 1002.1 1403.36 1000.09C1403.36 998.072 1404.01 996.46 1405.3 995.211C1406.59 993.962 1408.24 993.357 1410.25 993.357C1412.11 993.357 1413.72 994.002 1415.13 995.291C1416.54 996.581 1417.23 998.193 1417.23 1000.13C1417.23 1002.06 1416.54 1003.8 1415.17 1005.09C1413.8 1006.38 1412.15 1007.02 1410.21 1007.02L1410.25 1006.98ZM1405.18 1080.13V1016.41H1415.45V1080.13H1405.18Z" fill="white"/>
<path d="M1457.56 1080.13C1452.73 1080.13 1448.82 1079.41 1445.88 1077.96C1442.93 1076.5 1440.8 1074.25 1439.47 1071.18C1438.14 1068.12 1437.45 1064.25 1437.45 1059.58V1025.48H1427.05V1016.41H1437.45V997.427H1447.73V1016.41H1464.78V1025.48H1447.73V1058.49C1447.73 1062.84 1448.54 1066.07 1450.07 1068.08C1451.64 1070.14 1454.86 1071.18 1459.7 1071.18H1464.42V1080.13H1457.52H1457.56Z" fill="white"/>
<path d="M1503.96 1080.86C1497.18 1080.86 1491.58 1079.49 1487.15 1076.67C1482.72 1073.89 1479.41 1070.06 1477.23 1065.14C1475.06 1060.22 1473.97 1054.62 1473.97 1048.33C1473.97 1042.04 1475.14 1036.36 1477.4 1031.49C1479.69 1026.61 1483.08 1022.74 1487.47 1019.92C1491.9 1017.1 1497.35 1015.69 1503.79 1015.69C1508.79 1015.69 1513.06 1016.65 1516.65 1018.55C1520.24 1020.44 1523.18 1022.94 1525.56 1026.12C1527.94 1029.31 1529.59 1032.69 1530.64 1036.44C1531.69 1040.19 1532.13 1043.98 1531.97 1047.77C1531.89 1048.49 1531.81 1049.22 1531.81 1049.94C1531.81 1050.67 1531.69 1051.4 1531.64 1052.12H1484.37C1484.69 1055.83 1485.62 1059.17 1487.15 1062.16C1488.68 1065.14 1490.86 1067.52 1493.68 1069.21C1496.5 1070.9 1500.01 1071.79 1504.2 1071.79C1506.29 1071.79 1508.39 1071.55 1510.57 1071.02C1512.7 1070.5 1514.64 1069.57 1516.37 1068.28C1518.1 1066.99 1519.35 1065.26 1520.08 1063.08H1530.6C1529.63 1067.19 1527.82 1070.58 1525.16 1073.2C1522.5 1075.82 1519.31 1077.75 1515.6 1079C1511.9 1080.25 1508.03 1080.86 1504 1080.86H1503.96ZM1484.61 1043.13H1521.49C1521.41 1039.51 1520.6 1036.32 1519.07 1033.58C1517.54 1030.84 1515.48 1028.7 1512.86 1027.17C1510.24 1025.64 1507.14 1024.88 1503.51 1024.88C1499.56 1024.88 1496.22 1025.72 1493.52 1027.41C1490.82 1029.11 1488.76 1031.32 1487.31 1034.06C1485.86 1036.81 1484.97 1039.83 1484.65 1043.13H1484.61Z" fill="white"/>
<path d="M1580.75 1080.13V994.646H1610.37C1616.66 994.646 1622.06 995.654 1626.57 997.71C1631.09 999.765 1634.51 1002.91 1636.89 1007.1C1639.27 1011.29 1640.44 1016.61 1640.44 1023.06C1640.44 1029.51 1639.07 1034.67 1636.24 1038.98C1633.46 1043.29 1629.67 1046.56 1624.84 1048.73C1620 1050.91 1614.44 1052 1608.15 1052H1591.22V1080.17H1580.7L1580.75 1080.13ZM1591.26 1042.41H1607.71C1614.24 1042.41 1619.52 1040.88 1623.63 1037.73C1627.7 1034.63 1629.72 1029.59 1629.72 1022.58C1629.72 1016.45 1628.06 1011.86 1624.76 1008.79C1621.45 1005.73 1616.5 1004.2 1609.89 1004.2H1591.26V1042.41Z" fill="white"/>
<path d="M1681.1 1080.86C1674.41 1080.86 1668.81 1079.49 1664.3 1076.67C1659.78 1073.89 1656.4 1070.06 1654.22 1065.14C1652 1060.22 1650.88 1054.62 1650.88 1048.33C1650.88 1042.04 1652 1036.36 1654.26 1031.49C1656.52 1026.61 1659.9 1022.74 1664.42 1019.92C1668.93 1017.1 1674.57 1015.69 1681.35 1015.69C1688.12 1015.69 1693.6 1017.1 1698.11 1019.92C1702.59 1022.74 1705.93 1026.61 1708.15 1031.49C1710.36 1036.36 1711.49 1042 1711.49 1048.33C1711.49 1054.66 1710.36 1060.22 1708.11 1065.14C1705.85 1070.06 1702.51 1073.89 1698.03 1076.67C1693.56 1079.45 1687.95 1080.86 1681.18 1080.86H1681.1ZM1681.1 1071.79C1685.78 1071.79 1689.57 1070.74 1692.51 1068.65C1695.45 1066.55 1697.63 1063.73 1699.04 1060.18C1700.45 1056.64 1701.13 1052.69 1701.13 1048.33C1701.13 1043.98 1700.45 1040.03 1699.04 1036.48C1697.63 1032.94 1695.45 1030.11 1692.51 1028.02C1689.57 1025.92 1685.74 1024.88 1681.1 1024.88C1676.47 1024.88 1672.72 1025.92 1669.82 1028.02C1666.88 1030.11 1664.7 1032.94 1663.29 1036.48C1661.88 1040.03 1661.15 1043.98 1661.15 1048.33C1661.15 1052.69 1661.84 1056.64 1663.29 1060.18C1664.7 1063.73 1666.88 1066.55 1669.82 1068.65C1672.76 1070.74 1676.51 1071.79 1681.1 1071.79Z" fill="white"/>
<path d="M1748.45 1080.86C1745.54 1080.86 1742.64 1080.57 1739.7 1080.01C1736.76 1079.45 1734.02 1078.48 1731.48 1077.11C1728.94 1075.74 1726.84 1073.88 1725.15 1071.55C1723.46 1069.21 1722.37 1066.31 1721.89 1062.84H1732.28C1733.09 1065.02 1734.42 1066.75 1736.19 1068.08C1738.01 1069.41 1740.06 1070.38 1742.36 1070.94C1744.66 1071.51 1746.87 1071.79 1748.93 1071.79C1750.22 1071.79 1751.71 1071.71 1753.4 1071.55C1755.1 1071.39 1756.75 1071.02 1758.28 1070.38C1759.85 1069.77 1761.14 1068.85 1762.15 1067.68C1763.16 1066.51 1763.68 1064.78 1763.68 1062.6C1763.68 1060.99 1763.32 1059.66 1762.59 1058.61C1761.87 1057.56 1760.86 1056.71 1759.57 1055.99C1758.28 1055.3 1756.71 1054.82 1754.86 1054.46C1751.07 1053.65 1747 1052.89 1742.68 1052.16C1738.37 1051.43 1734.58 1050.06 1731.28 1048.05C1730.15 1047.32 1729.1 1046.52 1728.21 1045.55C1727.29 1044.62 1726.52 1043.58 1725.88 1042.41C1725.23 1041.24 1724.71 1039.95 1724.34 1038.54C1723.98 1037.13 1723.82 1035.6 1723.82 1033.9C1723.82 1030.76 1724.43 1028.02 1725.67 1025.72C1726.92 1023.42 1728.66 1021.53 1730.91 1020.04C1733.17 1018.55 1735.79 1017.46 1738.73 1016.69C1741.68 1015.97 1744.82 1015.6 1748.2 1015.6C1752.4 1015.6 1756.15 1016.29 1759.49 1017.62C1762.84 1018.95 1765.62 1020.88 1767.79 1023.42C1769.97 1025.96 1771.26 1029.11 1771.66 1032.81H1762.11C1761.55 1030.48 1760.01 1028.58 1757.52 1027.09C1755.02 1025.6 1751.83 1024.87 1747.96 1024.87C1746.67 1024.87 1745.22 1025 1743.61 1025.2C1742 1025.4 1740.47 1025.8 1739.02 1026.41C1737.56 1027.01 1736.36 1027.9 1735.39 1029.07C1734.42 1030.23 1733.94 1031.77 1733.94 1033.7C1733.94 1035.47 1734.42 1036.97 1735.31 1038.17C1736.23 1039.38 1737.56 1040.35 1739.26 1041.08C1740.95 1041.8 1742.88 1042.41 1745.06 1042.89C1747.88 1043.45 1750.99 1044.06 1754.37 1044.62C1757.76 1045.23 1760.42 1045.87 1762.35 1046.52C1764.93 1047.32 1767.07 1048.45 1768.84 1049.9C1770.57 1051.35 1771.86 1053.09 1772.71 1055.1C1773.56 1057.12 1773.96 1059.46 1773.96 1062.12C1773.96 1065.9 1773.23 1069.01 1771.74 1071.43C1770.25 1073.84 1768.24 1075.74 1765.74 1077.11C1763.24 1078.48 1760.5 1079.45 1757.48 1080.01C1754.45 1080.57 1751.43 1080.86 1748.45 1080.86Z" fill="white"/>
<path d="M1809.99 1080.86C1807.09 1080.86 1804.19 1080.58 1801.25 1080.01C1798.3 1079.45 1795.56 1078.48 1793.02 1077.11C1790.48 1075.74 1788.39 1073.88 1786.7 1071.55C1785 1069.21 1783.91 1066.31 1783.43 1062.84H1793.83C1794.64 1065.02 1795.97 1066.75 1797.74 1068.08C1799.55 1069.41 1801.61 1070.38 1803.91 1070.94C1806.2 1071.51 1808.42 1071.79 1810.47 1071.79C1811.76 1071.79 1813.26 1071.71 1814.95 1071.55C1816.64 1071.39 1818.29 1071.02 1819.83 1070.38C1821.4 1069.77 1822.69 1068.85 1823.69 1067.68C1824.7 1066.51 1825.23 1064.78 1825.23 1062.6C1825.23 1060.99 1824.86 1059.66 1824.14 1058.61C1823.41 1057.56 1822.4 1056.71 1821.12 1055.99C1819.83 1055.3 1818.25 1054.82 1816.4 1054.46C1812.61 1053.65 1808.54 1052.89 1804.23 1052.16C1799.92 1051.44 1796.13 1050.06 1792.82 1048.05C1791.69 1047.32 1790.64 1046.52 1789.76 1045.55C1788.83 1044.62 1788.07 1043.58 1787.42 1042.41C1786.78 1041.24 1786.25 1039.95 1785.89 1038.54C1785.53 1037.13 1785.37 1035.6 1785.37 1033.9C1785.37 1030.76 1785.97 1028.02 1787.22 1025.72C1788.47 1023.42 1790.2 1021.53 1792.46 1020.04C1794.72 1018.55 1797.34 1017.46 1800.28 1016.69C1803.22 1015.97 1806.36 1015.6 1809.75 1015.6C1813.94 1015.6 1817.69 1016.29 1821.03 1017.62C1824.38 1018.95 1827.16 1020.88 1829.34 1023.42C1831.51 1025.96 1832.8 1029.11 1833.21 1032.81H1823.65C1823.09 1030.48 1821.56 1028.58 1819.06 1027.09C1816.56 1025.6 1813.38 1024.87 1809.51 1024.87C1808.22 1024.87 1806.77 1025 1805.15 1025.2C1803.54 1025.4 1802.01 1025.8 1800.56 1026.41C1799.11 1027.01 1797.9 1027.9 1796.93 1029.07C1795.97 1030.23 1795.48 1031.77 1795.48 1033.7C1795.48 1035.47 1795.97 1036.97 1796.85 1038.17C1797.78 1039.38 1799.11 1040.35 1800.8 1041.08C1802.49 1041.8 1804.43 1042.41 1806.61 1042.89C1809.43 1043.45 1812.53 1044.06 1815.92 1044.62C1819.3 1045.23 1821.96 1045.87 1823.9 1046.52C1826.48 1047.32 1828.61 1048.45 1830.39 1049.9C1832.12 1051.35 1833.41 1053.09 1834.25 1055.1C1835.1 1057.12 1835.5 1059.46 1835.5 1062.12C1835.5 1065.9 1834.78 1069.01 1833.29 1071.43C1831.8 1073.84 1829.78 1075.74 1827.28 1077.11C1824.78 1078.48 1822.04 1079.45 1819.02 1080.01C1816 1080.58 1812.97 1080.86 1809.99 1080.86Z" fill="white"/>
<path d="M1853.4 1006.98C1851.3 1006.98 1849.65 1006.34 1848.4 1005.05C1847.15 1003.76 1846.51 1002.1 1846.51 1000.09C1846.51 998.072 1847.15 996.46 1848.44 995.211C1849.73 993.962 1851.39 993.357 1853.4 993.357C1855.25 993.357 1856.91 994.002 1858.32 995.291C1859.73 996.581 1860.41 998.193 1860.41 1000.13C1860.41 1002.06 1859.73 1003.8 1858.36 1005.09C1856.99 1006.38 1855.34 1007.02 1853.4 1007.02V1006.98ZM1848.32 1080.13V1016.41H1858.6V1080.13H1848.32Z" fill="white"/>
<path d="M1904.91 1080.86C1902.01 1080.86 1899.31 1080.54 1896.85 1079.85C1894.39 1079.17 1892.17 1078.16 1890.2 1076.91C1888.22 1075.62 1886.49 1074.13 1885.04 1072.43L1884.56 1080.17H1874.76V994.687H1885.04V1025.64C1887.13 1022.42 1890.12 1019.96 1894.07 1018.27C1897.98 1016.57 1901.97 1015.73 1906.12 1015.73C1912.57 1015.73 1917.85 1017.18 1921.96 1020.04C1926.07 1022.9 1929.09 1026.77 1931.07 1031.65C1933.04 1036.52 1934.05 1042.04 1934.05 1048.13C1934.05 1054.22 1933 1059.7 1930.91 1064.62C1928.81 1069.57 1925.63 1073.52 1921.35 1076.46C1917.08 1079.41 1911.6 1080.86 1904.91 1080.86ZM1904.79 1071.79C1909.46 1071.79 1913.17 1070.74 1915.91 1068.61C1918.65 1066.47 1920.63 1063.65 1921.92 1060.06C1923.17 1056.51 1923.77 1052.6 1923.77 1048.33C1923.77 1044.06 1923.13 1040.03 1921.92 1036.48C1920.67 1032.94 1918.61 1030.11 1915.79 1028.02C1912.97 1025.92 1909.22 1024.88 1904.55 1024.88C1900.35 1024.88 1896.81 1026.04 1893.87 1028.38C1890.92 1030.72 1888.67 1033.7 1887.13 1037.33C1885.6 1040.96 1884.84 1044.66 1884.84 1048.45C1884.84 1052.56 1885.52 1056.39 1886.85 1059.94C1888.18 1063.49 1890.32 1066.35 1893.26 1068.52C1896.2 1070.7 1900.03 1071.79 1904.83 1071.79H1904.79Z" fill="white"/>
<path d="M1952.91 1006.98C1950.82 1006.98 1949.16 1006.34 1947.91 1005.05C1946.67 1003.76 1946.02 1002.1 1946.02 1000.09C1946.02 998.072 1946.66 996.46 1947.95 995.211C1949.24 993.962 1950.9 993.357 1952.91 993.357C1954.77 993.357 1956.42 994.002 1957.83 995.291C1959.24 996.581 1959.93 998.193 1959.93 1000.13C1959.93 1002.06 1959.24 1003.8 1957.87 1005.09C1956.5 1006.38 1954.85 1007.02 1952.91 1007.02V1006.98ZM1947.83 1080.13V1016.41H1958.11V1080.13H1947.83Z" fill="white"/>
<path d="M1974.32 1080.13V994.646H1984.6V1080.13H1974.32Z" fill="white"/>
<path d="M2005.87 1006.98C2003.78 1006.98 2002.12 1006.34 2000.87 1005.05C1999.62 1003.76 1998.98 1002.1 1998.98 1000.09C1998.98 998.072 1999.62 996.46 2000.91 995.211C2002.2 993.962 2003.86 993.357 2005.87 993.357C2007.73 993.357 2009.38 994.002 2010.79 995.291C2012.2 996.581 2012.88 998.193 2012.88 1000.13C2012.88 1002.06 2012.2 1003.8 2010.83 1005.09C2009.46 1006.38 2007.81 1007.02 2005.87 1007.02V1006.98ZM2000.79 1080.13V1016.41H2011.07V1080.13H2000.79Z" fill="white"/>
<path d="M2053.15 1080.13C2048.31 1080.13 2044.4 1079.41 2041.5 1077.96C2038.56 1076.5 2036.42 1074.25 2035.09 1071.18C2033.76 1068.12 2033.08 1064.25 2033.08 1059.58V1025.48H2022.68V1016.41H2033.08V997.427H2043.36V1016.41H2060.41V1025.48H2043.36V1058.49C2043.36 1062.84 2044.16 1066.07 2045.69 1068.08C2047.27 1070.14 2050.45 1071.18 2055.29 1071.18H2060V1080.13H2053.11H2053.15Z" fill="white"/>
<path d="M2077.1 1006.98C2075 1006.98 2073.35 1006.34 2072.1 1005.05C2070.85 1003.76 2070.21 1002.1 2070.21 1000.09C2070.21 998.072 2070.85 996.46 2072.14 995.211C2073.43 993.962 2075.08 993.357 2077.1 993.357C2078.95 993.357 2080.6 994.002 2082.01 995.291C2083.43 996.581 2084.11 998.193 2084.11 1000.13C2084.11 1002.06 2083.43 1003.8 2082.05 1005.09C2080.68 1006.38 2079.03 1007.02 2077.1 1007.02V1006.98ZM2072.02 1080.13V1016.41H2082.3V1080.13H2072.02Z" fill="white"/>
<path d="M2126.06 1080.86C2119.29 1080.86 2113.69 1079.49 2109.25 1076.67C2104.82 1073.89 2101.52 1070.06 2099.34 1065.14C2097.16 1060.22 2096.07 1054.62 2096.07 1048.33C2096.07 1042.04 2097.24 1036.36 2099.5 1031.49C2101.8 1026.61 2105.18 1022.74 2109.58 1019.92C2114.01 1017.1 2119.45 1015.69 2125.9 1015.69C2130.9 1015.69 2135.17 1016.65 2138.76 1018.55C2142.34 1020.44 2145.29 1022.94 2147.66 1026.12C2150.04 1029.31 2151.69 1032.69 2152.74 1036.44C2153.79 1040.19 2154.23 1043.98 2154.07 1047.77C2153.99 1048.49 2153.91 1049.22 2153.91 1049.94C2153.91 1050.67 2153.79 1051.4 2153.75 1052.12H2106.47C2106.8 1055.83 2107.72 1059.17 2109.25 1062.16C2110.79 1065.14 2112.96 1067.52 2115.78 1069.21C2118.61 1070.9 2122.11 1071.79 2126.3 1071.79C2128.4 1071.79 2130.49 1071.55 2132.67 1071.02C2134.81 1070.5 2136.74 1069.57 2138.48 1068.28C2140.21 1066.99 2141.46 1065.26 2142.18 1063.08H2152.7C2151.74 1067.19 2149.92 1070.58 2147.26 1073.2C2144.6 1075.82 2141.42 1077.75 2137.71 1079C2134 1080.25 2130.13 1080.86 2126.1 1080.86H2126.06ZM2106.72 1043.13H2143.59C2143.51 1039.51 2142.71 1036.32 2141.18 1033.58C2139.64 1030.84 2137.59 1028.7 2134.97 1027.17C2132.35 1025.64 2129.25 1024.88 2125.62 1024.88C2121.67 1024.88 2118.32 1025.72 2115.62 1027.41C2112.92 1029.11 2110.87 1031.32 2109.42 1034.06C2107.96 1036.81 2107.08 1039.83 2106.76 1043.13H2106.72Z" fill="white"/>
<path d="M2190.99 1080.86C2188.09 1080.86 2185.19 1080.58 2182.25 1080.01C2179.3 1079.45 2176.56 1078.48 2174.02 1077.11C2171.48 1075.74 2169.39 1073.88 2167.7 1071.55C2166 1069.21 2164.91 1066.31 2164.43 1062.84H2174.83C2175.64 1065.02 2176.97 1066.75 2178.74 1068.08C2180.55 1069.41 2182.61 1070.38 2184.91 1070.94C2187.2 1071.51 2189.42 1071.79 2191.48 1071.79C2192.76 1071.79 2194.26 1071.71 2195.95 1071.55C2197.64 1071.39 2199.29 1071.02 2200.83 1070.38C2202.4 1069.77 2203.69 1068.85 2204.69 1067.68C2205.7 1066.51 2206.23 1064.78 2206.23 1062.6C2206.23 1060.99 2205.86 1059.66 2205.14 1058.61C2204.41 1057.56 2203.4 1056.71 2202.12 1055.99C2200.83 1055.3 2199.25 1054.82 2197.4 1054.46C2193.61 1053.65 2189.54 1052.89 2185.23 1052.16C2180.92 1051.44 2177.13 1050.06 2173.82 1048.05C2172.69 1047.32 2171.65 1046.52 2170.76 1045.55C2169.83 1044.62 2169.07 1043.58 2168.42 1042.41C2167.78 1041.24 2167.25 1039.95 2166.89 1038.54C2166.53 1037.13 2166.37 1035.6 2166.37 1033.9C2166.37 1030.76 2166.97 1028.02 2168.22 1025.72C2169.47 1023.42 2171.2 1021.53 2173.46 1020.04C2175.72 1018.55 2178.34 1017.46 2181.28 1016.69C2184.22 1015.97 2187.36 1015.6 2190.75 1015.6C2194.94 1015.6 2198.69 1016.29 2202.03 1017.62C2205.38 1018.95 2208.16 1020.88 2210.34 1023.42C2212.51 1025.96 2213.8 1029.11 2214.21 1032.81H2204.65C2204.09 1030.48 2202.56 1028.58 2200.06 1027.09C2197.56 1025.6 2194.38 1024.87 2190.51 1024.87C2189.22 1024.87 2187.77 1025 2186.15 1025.2C2184.54 1025.4 2183.01 1025.8 2181.56 1026.41C2180.11 1027.01 2178.9 1027.9 2177.93 1029.07C2176.97 1030.23 2176.48 1031.77 2176.48 1033.7C2176.48 1035.47 2176.97 1036.97 2177.85 1038.17C2178.78 1039.38 2180.11 1040.35 2181.8 1041.08C2183.49 1041.8 2185.43 1042.41 2187.61 1042.89C2190.43 1043.45 2193.53 1044.06 2196.92 1044.62C2200.3 1045.23 2202.96 1045.87 2204.9 1046.52C2207.48 1047.32 2209.61 1048.45 2211.39 1049.9C2213.12 1051.35 2214.41 1053.09 2215.25 1055.1C2216.1 1057.12 2216.5 1059.46 2216.5 1062.12C2216.5 1065.9 2215.78 1069.01 2214.29 1071.43C2212.8 1073.84 2210.78 1075.74 2208.28 1077.11C2205.78 1078.48 2203.04 1079.45 2200.02 1080.01C2197 1080.58 2193.97 1080.86 2190.99 1080.86Z" fill="white"/>
<path d="M1554.03 522.197C1553.46 520.343 1019.83 0.69751 1019.83 0.69751L982.552 482.295C982.552 482.295 82.0291 436.751 60.3856 439.049C38.7824 441.306 25.885 448.883 8.43313 475.444C-9.0187 502.004 8.43313 548.274 8.43313 548.274C8.43313 548.274 764.061 1308.09 861.557 1394.59C959.054 1481.08 987.509 1474.23 1033.01 1464.39C1078.56 1454.52 1102.42 1376.77 1104.71 1365C1106.97 1353.23 1070.37 566.29 1070.37 566.29C1070.37 566.29 1505.38 560.325 1536.54 559.76C1567.69 559.196 1554.59 524.051 1554.03 522.197ZM937.975 1190.69L252.154 576.245L979.73 566.29L937.975 1190.69ZM1060.5 486.245L1021.08 3.92182L1469.83 506.76L1060.5 486.245Z" fill="url(#paint0_linear_60_321)"/>
<path d="M1164.09 910.41V648.27H1254.93C1274.2 648.27 1290.76 651.413 1304.63 657.741C1318.45 664.028 1329.05 673.621 1336.35 686.478C1343.64 699.335 1347.27 715.659 1347.27 735.408C1347.27 755.157 1343 770.956 1334.5 784.176C1325.95 797.396 1314.3 807.351 1299.47 814.042C1284.64 820.732 1267.59 824.037 1248.28 824.037H1196.37V910.45H1164.13L1164.09 910.41ZM1196.33 794.696H1246.75C1266.78 794.696 1283.03 789.94 1295.52 780.428C1308.02 770.916 1314.26 755.399 1314.26 733.876C1314.26 715.094 1309.18 700.988 1299.07 691.597C1288.91 682.206 1273.72 677.49 1253.44 677.49H1196.33V794.655V794.696Z" fill="white"/>
<path d="M1390.27 910.41V715.014H1420.66L1422.16 745.404C1427.11 737.746 1432.84 731.579 1439.41 726.864C1445.93 722.148 1453.23 718.641 1461.29 716.304C1469.31 713.966 1478.02 712.797 1487.41 712.797H1497.4V742.461H1485.92C1470.6 742.461 1458.19 745.726 1448.64 752.296C1439.12 758.865 1432.27 767.611 1428.04 778.615C1423.85 789.618 1421.75 801.79 1421.75 815.13V910.41H1390.23H1390.27Z" fill="white"/>
<path d="M1613.85 912.627C1593.33 912.627 1576.16 908.354 1562.3 899.85C1548.43 891.305 1538.12 879.536 1531.35 864.422C1524.53 849.348 1521.15 832.179 1521.15 812.873C1521.15 793.567 1524.61 776.115 1531.55 761.162C1538.48 746.209 1548.84 734.4 1562.7 725.735C1576.53 717.069 1593.86 712.757 1614.61 712.757C1635.37 712.757 1652.26 717.069 1665.96 725.735C1679.67 734.4 1689.94 746.209 1696.75 761.162C1703.57 776.115 1706.95 793.366 1706.95 812.873C1706.95 832.38 1703.49 849.348 1696.55 864.422C1689.62 879.496 1679.3 891.305 1665.6 899.85C1651.9 908.394 1634.65 912.627 1613.89 912.627H1613.85ZM1613.85 884.816C1628.2 884.816 1639.84 881.592 1648.87 875.184C1657.9 868.775 1664.55 860.11 1668.9 849.227C1673.22 838.345 1675.39 826.254 1675.39 812.873C1675.39 799.492 1673.22 787.4 1668.9 776.518C1664.59 765.636 1657.9 757.011 1648.87 750.562C1639.84 744.154 1628.16 740.929 1613.85 740.929C1599.54 740.929 1588.21 744.154 1579.19 750.562C1570.16 757.011 1563.47 765.636 1559.16 776.518C1554.84 787.4 1552.67 799.492 1552.67 812.873C1552.67 826.254 1554.84 838.345 1559.16 849.227C1563.47 860.11 1570.16 868.775 1579.19 875.184C1588.21 881.632 1599.78 884.816 1613.85 884.816Z" fill="white"/>
<path d="M1832.62 912.627C1812.1 912.627 1795.09 908.354 1781.63 899.85C1768.17 891.306 1758.13 879.537 1751.6 864.423C1745.03 849.349 1741.77 832.3 1741.77 813.236C1741.77 794.172 1745.15 777.808 1751.97 762.613C1758.78 747.419 1769.14 735.287 1783.12 726.259C1797.07 717.231 1814.84 712.717 1836.32 712.717C1849.66 712.717 1861.59 714.933 1872.11 719.407C1882.63 723.841 1891.34 730.33 1898.27 738.874C1905.2 747.419 1910 758.099 1912.74 770.957H1880.5C1876.79 760.074 1870.9 752.336 1862.88 747.781C1854.86 743.227 1845.39 740.93 1834.51 740.93C1819.68 740.93 1807.83 744.396 1798.92 751.328C1790.01 758.261 1783.52 767.208 1779.45 778.211C1775.38 789.214 1773.33 800.903 1773.33 813.236C1773.33 825.569 1775.42 837.943 1779.61 848.825C1783.81 859.707 1790.38 868.413 1799.28 874.982C1808.19 881.552 1819.68 884.817 1833.78 884.817C1844.18 884.817 1853.98 882.6 1863.25 878.126C1872.52 873.693 1878.64 865.753 1881.59 854.387H1914.23C1911.77 867.728 1906.49 878.731 1898.47 887.396C1890.45 896.062 1880.66 902.43 1869.17 906.5C1857.68 910.571 1845.51 912.627 1832.66 912.627H1832.62Z" fill="white"/>
<path d="M2056.66 913.351C2040.1 913.351 2024.46 911.054 2009.75 906.499C1995.04 901.945 1982.5 894.408 1972.1 883.888C1961.71 873.369 1954.69 859.343 1950.98 841.811H1984.72C1988.19 852.935 1993.79 861.6 2001.61 867.767C2009.39 873.933 2018.33 878.205 2028.49 880.543C2038.61 882.881 2048.76 884.049 2058.88 884.049C2069 884.049 2078.47 882.639 2087.25 879.777C2096.04 876.916 2103.21 872.321 2108.78 865.872C2114.34 859.464 2117.12 851.161 2117.12 841.045C2117.12 833.145 2115.71 826.696 2112.85 821.779C2109.99 816.822 2106.04 812.832 2101 809.728C2095.92 806.625 2089.91 804.126 2083.02 802.11C2073.87 799.128 2064.12 796.67 2053.72 794.695C2043.32 792.72 2033.13 790.382 2023.13 787.641C2013.13 784.941 2003.78 781.475 1995.12 777.243C1990.4 774.784 1985.89 771.761 1981.58 768.174C1977.26 764.587 1973.56 760.395 1970.45 755.559C1967.35 750.722 1964.89 745.241 1963.04 739.074C1961.18 732.908 1960.25 726.096 1960.25 718.68C1960.25 707.556 1961.99 697.923 1965.45 689.742C1968.92 681.6 1973.6 674.668 1979.56 668.985C1985.49 663.302 1992.42 658.748 2000.32 655.281C2008.22 651.815 2016.68 649.276 2025.71 647.664C2034.74 646.052 2043.81 645.246 2052.96 645.246C2068.03 645.246 2082.18 647.543 2095.4 652.097C2108.62 656.692 2119.62 664.027 2128.4 674.144C2137.19 684.301 2141.95 698.004 2142.67 715.295H2111.15C2109.91 704.896 2106.44 696.755 2100.76 690.83C2095.07 684.905 2088.02 680.713 2079.64 678.215C2071.21 675.756 2062.35 674.507 2052.96 674.507C2046.02 674.507 2039.05 675.111 2032 676.361C2024.94 677.61 2018.53 679.746 2012.73 682.85C2006.93 685.953 2002.29 690.145 1998.83 695.465C1995.36 700.785 1993.63 707.516 1993.63 715.657C1993.63 722.066 1994.8 727.789 1997.13 732.706C1999.47 737.664 2002.7 741.775 2006.77 745.12C2010.84 748.465 2015.35 751.246 2020.31 753.463C2032.16 758.42 2045.34 762.048 2059.81 764.386C2074.28 766.723 2087.82 770.149 2100.39 774.583C2107.81 777.041 2114.62 780.145 2120.79 783.853C2126.95 787.561 2132.23 791.873 2136.55 796.831C2140.86 801.788 2144.2 807.39 2146.54 813.718C2148.88 820.006 2150.05 827.14 2150.05 835.039C2150.05 849.388 2147.59 861.56 2142.63 871.555C2137.68 881.551 2130.9 889.652 2122.24 895.859C2113.57 902.025 2103.62 906.499 2092.37 909.199C2081.13 911.9 2069.2 913.27 2056.58 913.27L2056.66 913.351Z" fill="#98CA3E"/>
<path d="M2275.8 910.409C2260.97 910.409 2249.04 908.192 2240.01 903.718C2230.98 899.285 2224.45 892.352 2220.34 882.961C2216.27 873.57 2214.21 861.721 2214.21 847.373V742.823H2182.33V715.013H2214.21V656.813H2245.73V715.013H2298.01V742.823H2245.73V844.068C2245.73 857.408 2248.15 867.243 2252.95 873.53C2257.78 879.818 2267.58 883.002 2282.41 883.002H2296.88V910.449H2275.76L2275.8 910.409Z" fill="#98CA3E"/>
<path d="M2396.3 912.626C2387.4 912.626 2378.81 911.456 2370.55 909.119C2362.25 906.781 2354.83 903.194 2348.3 898.358C2341.73 893.521 2336.57 887.475 2332.74 880.18C2328.91 872.885 2326.98 864.421 2326.98 854.788C2326.98 843.664 2329.03 834.274 2333.11 826.616C2337.18 818.958 2342.7 812.912 2349.59 808.438C2356.52 804.005 2364.54 800.78 2373.69 798.806C2382.84 796.831 2392.35 795.823 2402.23 795.823H2459.7C2459.7 784.699 2458.17 775.066 2455.07 766.884C2451.96 758.743 2446.97 752.375 2440.03 747.78C2433.1 743.226 2423.95 740.928 2412.59 740.928C2405.65 740.928 2399.24 741.654 2393.32 743.145C2387.4 744.636 2382.32 746.974 2378.13 750.198C2373.93 753.423 2370.83 757.735 2368.86 763.177H2335.12C2336.85 754.269 2340.24 746.692 2345.32 740.364C2350.4 734.077 2356.56 728.877 2363.86 724.807C2371.15 720.736 2379.01 717.713 2387.4 715.738C2395.78 713.763 2404.2 712.756 2412.63 712.756C2440.8 712.756 2460.83 721.058 2472.68 737.583C2484.53 754.148 2490.49 776.517 2490.49 804.69V910.368H2464.18L2462.32 885.541C2456.88 892.957 2450.31 898.64 2442.65 902.59C2435 906.539 2427.14 909.2 2419.12 910.57C2411.09 911.94 2403.48 912.626 2396.3 912.626ZM2399.25 884.815C2411.62 884.815 2422.3 882.76 2431.33 878.689C2440.36 874.618 2447.33 868.613 2452.29 860.713C2457.24 852.814 2459.7 843.181 2459.7 831.775V822.142H2425.2C2417.06 822.142 2409 822.263 2401.1 822.505C2393.2 822.746 2386.03 823.754 2379.58 825.487C2373.13 827.22 2368.01 830.203 2364.18 834.394C2360.35 838.586 2358.42 844.672 2358.42 852.572C2358.42 859.988 2360.31 866.034 2364.18 870.749C2368.01 875.465 2373.09 878.971 2379.38 881.309C2385.66 883.647 2392.27 884.815 2399.2 884.815H2399.25Z" fill="#98CA3E"/>
<path d="M2618.79 910.409C2603.96 910.409 2592.03 908.192 2583 903.718C2573.97 899.285 2567.44 892.352 2563.33 882.961C2559.26 873.57 2557.21 861.721 2557.21 847.373V742.823H2525.33V715.013H2557.21V656.813H2588.73V715.013H2641V742.823H2588.73V844.068C2588.73 857.408 2591.14 867.243 2595.94 873.53C2600.78 879.818 2610.57 883.002 2625.4 883.002H2639.87V910.449H2618.75L2618.79 910.409Z" fill="#98CA3E"/>
<defs>
<linearGradient id="paint0_linear_60_321" x1="691.916" y1="51.5617" x2="972.919" y2="1582.57" gradientUnits="userSpaceOnUse">
<stop offset="0.36" stop-color="#6635C6"/>
<stop offset="0.82" stop-color="#97EF29"/>
</linearGradient>
</defs>
</svg>
